<svg width="14" height="21" viewBox="0 0 14 21" fill="none" xmlns="http://www.w3.org/2000/svg">
<g clip-path="url(#clip0_166_883)">
<path d="M6.74089 11.4453C7.12518 11.4453 7.49372 11.1803 7.76544 10.7085C8.03717 10.2367 8.18983 9.59687 8.18983 8.92969C8.18983 8.2625 8.03717 7.62264 7.76544 7.15087C7.49372 6.6791 7.12518 6.41406 6.74089 6.41406C6.71825 6.41406 6.69833 6.4235 6.67637 6.42546C6.74619 6.7593 6.75972 7.12079 6.71537 7.46751C6.67102 7.81423 6.57063 8.13179 6.42598 8.38293C6.28133 8.63407 6.09842 8.80837 5.89872 8.88537C5.69902 8.96238 5.49081 8.93889 5.29853 8.81766C5.29853 8.85697 5.29196 8.89156 5.29196 8.92969C5.29196 9.26004 5.32944 9.58717 5.40225 9.89238C5.47507 10.1976 5.5818 10.4749 5.71634 10.7085C5.98807 11.1803 6.35661 11.4453 6.74089 11.4453ZM13.1823 9.61362C11.9546 5.45459 9.52398 2.64062 6.74089 2.64062C3.95781 2.64062 1.52654 5.45655 0.299477 9.61402C0.247687 9.79188 0.220703 9.98839 0.220703 10.1877C0.220703 10.387 0.247687 10.5835 0.299477 10.7614C1.52722 14.9204 3.95781 17.7344 6.74089 17.7344C9.52398 17.7344 11.9552 14.9184 13.1823 10.761C13.2341 10.5831 13.2611 10.3866 13.2611 10.1873C13.2611 9.988 13.2341 9.79149 13.1823 9.61362ZM6.74089 3.89844C7.31404 3.89844 7.87431 4.19352 8.35086 4.74636C8.82741 5.2992 9.19884 6.08497 9.41818 7.00431C9.63751 7.92365 9.6949 8.93527 9.58308 9.91124C9.47127 10.8872 9.19527 11.7837 8.79 12.4873C8.38472 13.191 7.86837 13.6701 7.30624 13.8643C6.74411 14.0584 6.16144 13.9588 5.63193 13.578C5.10241 13.1972 4.64983 12.5523 4.3314 11.7249C4.01298 10.8975 3.84303 9.92477 3.84303 8.92969C3.84386 7.59576 4.14944 6.31689 4.69272 5.37367C5.23599 4.43044 5.97259 3.89989 6.74089 3.89844ZM6.74089 16.4766C4.31031 16.4766 2.08936 14.0667 0.945158 10.1875C1.58867 7.99415 2.61779 6.21361 3.88332 5.10397C3.41084 6.16604 3.11856 7.48202 3.11856 8.92969C3.11856 10.5977 3.5002 12.1973 4.17952 13.3767C4.85884 14.5562 5.78019 15.2188 6.74089 15.2188C7.7016 15.2188 8.62295 14.5562 9.30227 13.3767C9.98159 12.1973 10.3632 10.5977 10.3632 8.92969C10.3632 7.48202 10.071 6.16604 9.59846 5.10397C10.864 6.21361 11.8931 7.99415 12.5366 10.1875C11.3927 14.0667 9.17148 16.4766 6.74089 16.4766Z" fill="#FEAF00"/>
</g>
<defs>
<clipPath id="clip0_166_883">
<rect width="13.0404" height="20.125" fill="white" transform="translate(0.220703 0.125)"/>
</clipPath>
</defs>
</svg>
