<svg width="14" height="21" viewBox="0 0 14 21" fill="none" xmlns="http://www.w3.org/2000/svg">
<g clip-path="url(#clip0_166_876)">
<path d="M7.47966 11.6953C7.86395 11.6953 8.23249 11.4303 8.50421 10.9585C8.77594 10.4867 8.9286 9.84687 8.9286 9.17969C8.9286 8.5125 8.77594 7.87264 8.50421 7.40087C8.23249 6.9291 7.86395 6.66406 7.47966 6.66406C7.45702 6.66406 7.4371 6.6735 7.41514 6.67546C7.48496 7.0093 7.49849 7.37079 7.45414 7.71751C7.40979 8.06423 7.3094 8.38179 7.16475 8.63293C7.0201 8.88407 6.83719 9.05837 6.63749 9.13537C6.43779 9.21238 6.22958 9.18889 6.03729 9.06766C6.03729 9.10697 6.03073 9.14156 6.03073 9.17969C6.03073 9.51004 6.06821 9.83717 6.14102 10.1424C6.21384 10.4476 6.32057 10.7249 6.45511 10.9585C6.72684 11.4303 7.09538 11.6953 7.47966 11.6953ZM13.9211 9.86362C12.6933 5.70459 10.2627 2.89062 7.47966 2.89062C4.69658 2.89062 2.26531 5.70655 1.03825 9.86402C0.986456 10.0419 0.959473 10.2384 0.959473 10.4377C0.959473 10.637 0.986456 10.8335 1.03825 11.0114C2.26599 15.1704 4.69658 17.9844 7.47966 17.9844C10.2627 17.9844 12.694 15.1684 13.9211 11.011C13.9729 10.8331 13.9999 10.6366 13.9999 10.4373C13.9999 10.238 13.9729 10.0415 13.9211 9.86362ZM7.47966 4.14844C8.05281 4.14844 8.61308 4.44352 9.08963 4.99636C9.56618 5.5492 9.93761 6.33497 10.1569 7.25431C10.3763 8.17365 10.4337 9.18527 10.3218 10.1612C10.21 11.1372 9.93404 12.0337 9.52877 12.7373C9.12349 13.441 8.60714 13.9201 8.04501 14.1143C7.48288 14.3084 6.90021 14.2088 6.3707 13.828C5.84118 13.4472 5.3886 12.8023 5.07017 11.9749C4.75175 11.1475 4.5818 10.1748 4.5818 9.17969C4.58263 7.84576 4.88821 6.56689 5.43149 5.62367C5.97476 4.68044 6.71136 4.14989 7.47966 4.14844ZM7.47966 16.7266C5.04908 16.7266 2.82813 14.3167 1.68393 10.4375C2.32744 8.24415 3.35656 6.46361 4.62209 5.35397C4.14961 6.41604 3.85733 7.73202 3.85733 9.17969C3.85733 10.8477 4.23897 12.4473 4.91829 13.6267C5.59761 14.8062 6.51896 15.4688 7.47966 15.4688C8.44037 15.4688 9.36172 14.8062 10.041 13.6267C10.7204 12.4473 11.102 10.8477 11.102 9.17969C11.102 7.73202 10.8097 6.41604 10.3372 5.35397C11.6028 6.46361 12.6319 8.24415 13.2754 10.4375C12.1314 14.3167 9.91025 16.7266 7.47966 16.7266Z" fill="#FEAF00"/>
</g>
<defs>
<clipPath id="clip0_166_876">
<rect width="13.0404" height="20.125" fill="white" transform="translate(0.959473 0.375)"/>
</clipPath>
</defs>
</svg>
