<svg width="12" height="21" viewBox="0 0 12 21" fill="none" xmlns="http://www.w3.org/2000/svg">
<g clip-path="url(#clip0_175_640)">
<path d="M5.81081 12.0703C6.12621 12.0703 6.42868 11.8053 6.6517 11.3335C6.87471 10.8617 7 10.2219 7 9.55469C7 8.8875 6.87471 8.24764 6.6517 7.77587C6.42868 7.3041 6.12621 7.03906 5.81081 7.03906C5.79223 7.03906 5.77588 7.0485 5.75786 7.05046C5.81516 7.3843 5.82626 7.74579 5.78986 8.09251C5.75346 8.43923 5.67107 8.75679 5.55235 9.00793C5.43363 9.25907 5.28351 9.43337 5.11961 9.51037C4.95571 9.58738 4.78482 9.56389 4.62701 9.44266C4.62701 9.48197 4.62162 9.51656 4.62162 9.55469C4.62162 9.88504 4.65238 10.2122 4.71215 10.5174C4.77191 10.8226 4.8595 11.0999 4.96993 11.3335C5.19295 11.8053 5.49542 12.0703 5.81081 12.0703ZM11.0975 10.2386C10.0898 6.07959 8.09498 3.26562 5.81081 3.26562C3.52664 3.26562 1.53122 6.08155 0.524125 10.239C0.481619 10.4169 0.459473 10.6134 0.459473 10.8127C0.459473 11.012 0.481619 11.2085 0.524125 11.3864C1.53178 15.5454 3.52664 18.3594 5.81081 18.3594C8.09498 18.3594 10.0904 15.5434 11.0975 11.386C11.14 11.2081 11.1622 11.0116 11.1622 10.8123C11.1622 10.613 11.14 10.4165 11.0975 10.2386ZM5.81081 4.52344C6.28121 4.52344 6.74105 4.81852 7.13217 5.37136C7.52329 5.9242 7.82813 6.70997 8.00815 7.62931C8.18816 8.54865 8.23526 9.56027 8.14349 10.5362C8.05172 11.5122 7.8252 12.4087 7.49258 13.1123C7.15996 13.816 6.73617 14.2951 6.27481 14.4893C5.81345 14.6834 5.33524 14.5838 4.90065 14.203C4.46606 13.8222 4.0946 13.1773 3.83326 12.3499C3.57192 11.5225 3.43243 10.5498 3.43243 9.55469C3.43312 8.22076 3.68392 6.94189 4.12981 5.99867C4.57569 5.05544 5.18024 4.52489 5.81081 4.52344ZM5.81081 17.1016C3.81595 17.1016 1.99314 14.6917 1.05406 10.8125C1.58221 8.61915 2.42684 6.83861 3.46551 5.72897C3.07772 6.79104 2.83784 8.10702 2.83784 9.55469C2.83784 11.2227 3.15106 12.8223 3.7086 14.0017C4.26614 15.1812 5.02233 15.8438 5.81081 15.8438C6.59929 15.8438 7.35548 15.1812 7.91302 14.0017C8.47056 12.8223 8.78378 11.2227 8.78378 9.55469C8.78378 8.10702 8.5439 6.79104 8.15612 5.72897C9.19479 6.83861 10.0394 8.61915 10.5676 10.8125C9.62867 14.6917 7.80568 17.1016 5.81081 17.1016Z" fill="#FEAF00"/>
</g>
<defs>
<clipPath id="clip0_175_640">
<rect width="10.7027" height="20.125" fill="white" transform="translate(0.459473 0.75)"/>
</clipPath>
</defs>
</svg>
