<svg width="14" height="21" viewBox="0 0 14 21" fill="none" xmlns="http://www.w3.org/2000/svg">
<g clip-path="url(#clip0_166_893)">
<path d="M7.00212 11.4453C7.38641 11.4453 7.75495 11.1803 8.02668 10.7085C8.2984 10.2367 8.45106 9.59687 8.45106 8.92969C8.45106 8.2625 8.2984 7.62264 8.02668 7.15087C7.75495 6.6791 7.38641 6.41406 7.00212 6.41406C6.97949 6.41406 6.95956 6.4235 6.9376 6.42546C7.00742 6.7593 7.02095 7.12079 6.9766 7.46751C6.93225 7.81423 6.83186 8.13179 6.68721 8.38293C6.54256 8.63407 6.35965 8.80837 6.15995 8.88537C5.96025 8.96238 5.75204 8.93889 5.55976 8.81766C5.55976 8.85697 5.55319 8.89156 5.55319 8.92969C5.55319 9.26004 5.59067 9.58717 5.66348 9.89238C5.7363 10.1976 5.84303 10.4749 5.97757 10.7085C6.2493 11.1803 6.61784 11.4453 7.00212 11.4453ZM13.4435 9.61362C12.2158 5.45459 9.78521 2.64062 7.00212 2.64062C4.21904 2.64062 1.78777 5.45655 0.560707 9.61402C0.508917 9.79188 0.481934 9.98839 0.481934 10.1877C0.481934 10.387 0.508917 10.5835 0.560707 10.7614C1.78845 14.9204 4.21904 17.7344 7.00212 17.7344C9.78521 17.7344 12.2165 14.9184 13.4435 10.761C13.4953 10.5831 13.5223 10.3866 13.5223 10.1873C13.5223 9.988 13.4953 9.79149 13.4435 9.61362ZM7.00212 3.89844C7.57527 3.89844 8.13554 4.19352 8.61209 4.74636C9.08864 5.2992 9.46007 6.08497 9.67941 7.00431C9.89874 7.92365 9.95613 8.93527 9.84431 9.91124C9.7325 10.8872 9.4565 11.7837 9.05123 12.4873C8.64595 13.191 8.1296 13.6701 7.56747 13.8643C7.00534 14.0584 6.42267 13.9588 5.89316 13.578C5.36364 13.1972 4.91106 12.5523 4.59264 11.7249C4.27421 10.8975 4.10426 9.92477 4.10426 8.92969C4.1051 7.59576 4.41068 6.31689 4.95395 5.37367C5.49722 4.43044 6.23382 3.89989 7.00212 3.89844ZM7.00212 16.4766C4.57154 16.4766 2.35059 14.0667 1.20639 10.1875C1.8499 7.99415 2.87902 6.21361 4.14455 5.10397C3.67207 6.16604 3.37979 7.48202 3.37979 8.92969C3.37979 10.5977 3.76143 12.1973 4.44075 13.3767C5.12007 14.5562 6.04142 15.2188 7.00212 15.2188C7.96283 15.2188 8.88418 14.5562 9.5635 13.3767C10.2428 12.1973 10.6245 10.5977 10.6245 8.92969C10.6245 7.48202 10.3322 6.16604 9.85969 5.10397C11.1252 6.21361 12.1543 7.99415 12.7979 10.1875C11.6539 14.0667 9.43271 16.4766 7.00212 16.4766Z" fill="#FEAF00"/>
</g>
<defs>
<clipPath id="clip0_166_893">
<rect width="13.0404" height="20.125" fill="white" transform="translate(0.481934 0.125)"/>
</clipPath>
</defs>
</svg>
