<svg width="11" height="21" viewBox="0 0 11 21" fill="none" xmlns="http://www.w3.org/2000/svg">
<g clip-path="url(#clip0_175_650)">
<path d="M5.38357 11.7578C5.69896 11.7578 6.00143 11.4928 6.22445 11.021C6.44747 10.5492 6.57276 9.90937 6.57276 9.24219C6.57276 8.575 6.44747 7.93514 6.22445 7.46337C6.00143 6.9916 5.69896 6.72656 5.38357 6.72656C5.36499 6.72656 5.34863 6.736 5.33061 6.73796C5.38792 7.0718 5.39902 7.43329 5.36262 7.78001C5.32622 8.12673 5.24382 8.44429 5.1251 8.69543C5.00638 8.94657 4.85627 9.12087 4.69236 9.19787C4.52846 9.27488 4.35758 9.25139 4.19977 9.13016C4.19977 9.16947 4.19438 9.20406 4.19438 9.24219C4.19438 9.57254 4.22514 9.89967 4.2849 10.2049C4.34466 10.5101 4.43226 10.7874 4.54268 11.021C4.7657 11.4928 5.06817 11.7578 5.38357 11.7578ZM10.6703 9.92612C9.6626 5.76709 7.66774 2.95312 5.38357 2.95312C3.09939 2.95312 1.10397 5.76905 0.0968786 9.92652C0.0543728 10.1044 0.0322266 10.3009 0.0322266 10.5002C0.0322266 10.6995 0.0543728 10.896 0.0968786 11.0739C1.10453 15.2329 3.09939 18.0469 5.38357 18.0469C7.66774 18.0469 9.66316 15.2309 10.6703 11.0735C10.7128 10.8956 10.7349 10.6991 10.7349 10.4998C10.7349 10.3005 10.7128 10.104 10.6703 9.92612ZM5.38357 4.21094C5.85397 4.21094 6.3138 4.50602 6.70492 5.05886C7.09604 5.6117 7.40089 6.39747 7.5809 7.31681C7.76092 8.23615 7.80802 9.24777 7.71624 10.2237C7.62447 11.1997 7.39796 12.0962 7.06533 12.7998C6.73271 13.5035 6.30893 13.9826 5.84757 14.1768C5.38621 14.3709 4.90799 14.2713 4.4734 13.8905C4.03881 13.5097 3.66736 12.8648 3.40602 12.0374C3.14468 11.21 3.00519 10.2373 3.00519 9.24219C3.00588 7.90826 3.25668 6.62939 3.70256 5.68617C4.14844 4.74294 4.75299 4.21239 5.38357 4.21094ZM5.38357 16.7891C3.3887 16.7891 1.5659 14.3792 0.626811 10.5C1.15497 8.30665 1.99959 6.52611 3.03826 5.41647C2.65048 6.47854 2.41059 7.79452 2.41059 9.24219C2.41059 10.9102 2.72382 12.5098 3.28136 13.6892C3.8389 14.8687 4.59509 15.5312 5.38357 15.5312C6.17205 15.5312 6.92824 14.8687 7.48578 13.6892C8.04332 12.5098 8.35654 10.9102 8.35654 9.24219C8.35654 7.79452 8.11666 6.47854 7.72887 5.41647C8.76754 6.52611 9.61217 8.30665 10.1403 10.5C9.20142 14.3792 7.37843 16.7891 5.38357 16.7891Z" fill="#FEAF00"/>
</g>
<defs>
<clipPath id="clip0_175_650">
<rect width="10.7027" height="20.125" fill="white" transform="translate(0.0322266 0.4375)"/>
</clipPath>
</defs>
</svg>
