<svg width="12" height="21" viewBox="0 0 12 21" fill="none" xmlns="http://www.w3.org/2000/svg">
<g clip-path="url(#clip0_175_633)">
<path d="M6.23806 11.6328C6.55345 11.6328 6.85593 11.3678 7.07894 10.896C7.30196 10.4242 7.42725 9.78437 7.42725 9.11719C7.42725 8.45 7.30196 7.81014 7.07894 7.33837C6.85593 6.8666 6.55345 6.60156 6.23806 6.60156C6.21948 6.60156 6.20313 6.611 6.1851 6.61296C6.24241 6.9468 6.25351 7.30829 6.21711 7.65501C6.18071 8.00173 6.09831 8.31929 5.97959 8.57043C5.86088 8.82157 5.71076 8.99587 5.54686 9.07287C5.38295 9.14988 5.21207 9.12639 5.05426 9.00516C5.05426 9.04447 5.04887 9.07906 5.04887 9.11719C5.04887 9.44754 5.07963 9.77467 5.13939 10.0799C5.19915 10.3851 5.28675 10.6624 5.39717 10.896C5.62019 11.3678 5.92267 11.6328 6.23806 11.6328ZM11.5247 9.80112C10.5171 5.64209 8.52223 2.82812 6.23806 2.82812C3.95389 2.82812 1.95847 5.64405 0.951371 9.80152C0.908865 9.97938 0.886719 10.1759 0.886719 10.3752C0.886719 10.5745 0.908865 10.771 0.951371 10.9489C1.95902 15.1079 3.95389 17.9219 6.23806 17.9219C8.52223 17.9219 10.5177 15.1059 11.5247 10.9485C11.5673 10.7706 11.5894 10.5741 11.5894 10.3748C11.5894 10.1755 11.5673 9.97899 11.5247 9.80112ZM6.23806 4.08594C6.70846 4.08594 7.16829 4.38102 7.55941 4.93386C7.95054 5.4867 8.25538 6.27247 8.43539 7.19181C8.61541 8.11115 8.66251 9.12277 8.57074 10.0987C8.47897 11.0747 8.25245 11.9712 7.91983 12.6748C7.5872 13.3785 7.16342 13.8576 6.70206 14.0518C6.2407 14.2459 5.76248 14.1463 5.32789 13.7655C4.8933 13.3847 4.52185 12.7398 4.26051 11.9124C3.99917 11.085 3.85968 10.1123 3.85968 9.11719C3.86037 7.78326 4.11117 6.50439 4.55705 5.56117C5.00293 4.61794 5.60748 4.08739 6.23806 4.08594ZM6.23806 16.6641C4.24319 16.6641 2.42039 14.2542 1.4813 10.375C2.00946 8.18165 2.85409 6.40111 3.89276 5.29147C3.50497 6.35354 3.26509 7.66952 3.26509 9.11719C3.26509 10.7852 3.57831 12.3848 4.13585 13.5642C4.69339 14.7437 5.44958 15.4062 6.23806 15.4062C7.02654 15.4062 7.78273 14.7437 8.34027 13.5642C8.89781 12.3848 9.21103 10.7852 9.21103 9.11719C9.21103 7.66952 8.97115 6.35354 8.58336 5.29147C9.62203 6.40111 10.4667 8.18165 10.9948 10.375C10.0559 14.2542 8.23292 16.6641 6.23806 16.6641Z" fill="#FEAF00"/>
</g>
<defs>
<clipPath id="clip0_175_633">
<rect width="10.7027" height="20.125" fill="white" transform="translate(0.886719 0.3125)"/>
</clipPath>
</defs>
</svg>
