<svg width="14" height="21" viewBox="0 0 14 21" fill="none" xmlns="http://www.w3.org/2000/svg">
<g clip-path="url(#clip0_166_863)">
<path d="M6.74089 11.9453C7.12518 11.9453 7.49372 11.6803 7.76544 11.2085C8.03717 10.7367 8.18983 10.0969 8.18983 9.42969C8.18983 8.7625 8.03717 8.12264 7.76544 7.65087C7.49372 7.1791 7.12518 6.91406 6.74089 6.91406C6.71825 6.91406 6.69833 6.9235 6.67637 6.92546C6.74619 7.2593 6.75972 7.62079 6.71537 7.96751C6.67102 8.31423 6.57063 8.63179 6.42598 8.88293C6.28133 9.13407 6.09842 9.30837 5.89872 9.38537C5.69902 9.46238 5.49081 9.43889 5.29853 9.31766C5.29853 9.35697 5.29196 9.39156 5.29196 9.42969C5.29196 9.76004 5.32944 10.0872 5.40225 10.3924C5.47507 10.6976 5.5818 10.9749 5.71634 11.2085C5.98807 11.6803 6.35661 11.9453 6.74089 11.9453ZM13.1823 10.1136C11.9546 5.95459 9.52398 3.14062 6.74089 3.14062C3.95781 3.14062 1.52654 5.95655 0.299477 10.114C0.247687 10.2919 0.220703 10.4884 0.220703 10.6877C0.220703 10.887 0.247687 11.0835 0.299477 11.2614C1.52722 15.4204 3.95781 18.2344 6.74089 18.2344C9.52398 18.2344 11.9552 15.4184 13.1823 11.261C13.2341 11.0831 13.2611 10.8866 13.2611 10.6873C13.2611 10.488 13.2341 10.2915 13.1823 10.1136ZM6.74089 4.39844C7.31404 4.39844 7.87431 4.69352 8.35086 5.24636C8.82741 5.7992 9.19884 6.58497 9.41818 7.50431C9.63751 8.42365 9.6949 9.43527 9.58308 10.4112C9.47127 11.3872 9.19527 12.2837 8.79 12.9873C8.38472 13.691 7.86837 14.1701 7.30624 14.3643C6.74411 14.5584 6.16144 14.4588 5.63193 14.078C5.10241 13.6972 4.64983 13.0523 4.3314 12.2249C4.01298 11.3975 3.84303 10.4248 3.84303 9.42969C3.84386 8.09576 4.14944 6.81689 4.69272 5.87367C5.23599 4.93044 5.97259 4.39989 6.74089 4.39844ZM6.74089 16.9766C4.31031 16.9766 2.08936 14.5667 0.945158 10.6875C1.58867 8.49415 2.61779 6.71361 3.88332 5.60397C3.41084 6.66604 3.11856 7.98202 3.11856 9.42969C3.11856 11.0977 3.5002 12.6973 4.17952 13.8767C4.85884 15.0562 5.78019 15.7188 6.74089 15.7188C7.7016 15.7188 8.62295 15.0562 9.30227 13.8767C9.98159 12.6973 10.3632 11.0977 10.3632 9.42969C10.3632 7.98202 10.071 6.66604 9.59846 5.60397C10.864 6.71361 11.8931 8.49415 12.5366 10.6875C11.3927 14.5667 9.17148 16.9766 6.74089 16.9766Z" fill="#FEAF00"/>
</g>
<defs>
<clipPath id="clip0_166_863">
<rect width="13.0404" height="20.125" fill="white" transform="translate(0.220703 0.625)"/>
</clipPath>
</defs>
</svg>
