<svg width="12" height="21" viewBox="0 0 12 21" fill="none" xmlns="http://www.w3.org/2000/svg">
<g clip-path="url(#clip0_175_620)">
<path d="M5.81032 12.1953C6.12572 12.1953 6.42819 11.9303 6.65121 11.4585C6.87422 10.9867 6.99951 10.3469 6.99951 9.67969C6.99951 9.0125 6.87422 8.37264 6.65121 7.90087C6.42819 7.4291 6.12572 7.16406 5.81032 7.16406C5.79174 7.16406 5.77539 7.1735 5.75737 7.17546C5.81467 7.5093 5.82578 7.87079 5.78938 8.21751C5.75298 8.56423 5.67058 8.88179 5.55186 9.13293C5.43314 9.38407 5.28302 9.55837 5.11912 9.63537C4.95522 9.71238 4.78434 9.68889 4.62652 9.56766C4.62652 9.60697 4.62114 9.64156 4.62114 9.67969C4.62114 10.01 4.65189 10.3372 4.71166 10.6424C4.77142 10.9476 4.85901 11.2249 4.96944 11.4585C5.19246 11.9303 5.49493 12.1953 5.81032 12.1953ZM11.097 10.3636C10.0894 6.20459 8.0945 3.39062 5.81032 3.39062C3.52615 3.39062 1.53073 6.20655 0.523636 10.364C0.481131 10.5419 0.458984 10.7384 0.458984 10.9377C0.458984 11.137 0.481131 11.3335 0.523636 11.5114C1.53129 15.6704 3.52615 18.4844 5.81032 18.4844C8.0945 18.4844 10.0899 15.6684 11.097 11.511C11.1395 11.3331 11.1617 11.1366 11.1617 10.9373C11.1617 10.738 11.1395 10.5415 11.097 10.3636ZM5.81032 4.64844C6.28072 4.64844 6.74056 4.94352 7.13168 5.49636C7.5228 6.0492 7.82765 6.83497 8.00766 7.75431C8.18767 8.67365 8.23477 9.68527 8.143 10.6612C8.05123 11.6372 7.82471 12.5337 7.49209 13.2373C7.15947 13.941 6.73568 14.4201 6.27432 14.6143C5.81296 14.8084 5.33475 14.7088 4.90016 14.328C4.46557 13.9472 4.09412 13.3023 3.83278 12.4749C3.57144 11.6475 3.43195 10.6748 3.43195 9.67969C3.43264 8.34576 3.68343 7.06689 4.12932 6.12367C4.5752 5.18044 5.17975 4.64989 5.81032 4.64844ZM5.81032 17.2266C3.81546 17.2266 1.99266 14.8167 1.05357 10.9375C1.58172 8.74415 2.42635 6.96361 3.46502 5.85397C3.07723 6.91604 2.83735 8.23202 2.83735 9.67969C2.83735 11.3477 3.15058 12.9473 3.70812 14.1267C4.26566 15.3062 5.02184 15.9688 5.81032 15.9688C6.59881 15.9688 7.35499 15.3062 7.91253 14.1267C8.47007 12.9473 8.7833 11.3477 8.7833 9.67969C8.7833 8.23202 8.54342 6.91604 8.15563 5.85397C9.1943 6.96361 10.0389 8.74415 10.5671 10.9375C9.62818 14.8167 7.80519 17.2266 5.81032 17.2266Z" fill="#FEAF00"/>
</g>
<defs>
<clipPath id="clip0_175_620">
<rect width="10.7027" height="20.125" fill="white" transform="translate(0.458984 0.875)"/>
</clipPath>
</defs>
</svg>
