<svg width="66" height="38" viewBox="0 0 66 38" fill="none" xmlns="http://www.w3.org/2000/svg">
<g clip-path="url(#clip0_167_909)">
<path d="M62.5696 11.4291L35.5609 5.07007C33.7457 4.64331 31.8408 4.64331 30.0256 5.07007L3.01693 11.4291C1.29347 11.8351 0.178467 12.9425 0.178467 14.2502C0.178467 15.5579 1.29347 16.6653 3.01591 17.0712L6.04394 17.7837C5.70761 18.2424 5.45892 18.736 5.29687 19.2533C4.20735 19.6377 3.4399 20.4341 3.4399 21.3752C3.4399 22.32 4.21143 23.1208 5.30808 23.503L3.46843 31.8051C3.30434 32.5466 3.86694 33.2502 4.6242 33.2502H8.77743C9.53469 33.2502 10.0983 32.5466 9.9332 31.8051L8.09456 23.503C9.19122 23.1208 9.96275 22.32 9.96275 21.3752C9.96275 20.5885 9.40321 19.925 8.59397 19.4923C8.74583 19.1464 8.98127 18.8347 9.26358 18.5415L14.7132 19.8248L13.2242 28.5002C13.2242 31.1238 21.9852 33.2502 32.7928 33.2502C43.6003 33.2502 52.3613 31.1238 52.3613 28.5002L50.8723 19.8248L62.5696 17.0705C64.292 16.6653 65.407 15.5579 65.407 14.2502C65.407 12.9425 64.292 11.8351 62.5696 11.4291ZM49.0469 28.3414C47.9502 29.1823 42.3773 30.8752 32.7928 30.8752C23.2082 30.8752 17.6353 29.1823 16.5386 28.3414L17.8727 20.5684L30.0256 23.4296C30.2906 23.4919 32.647 24.1146 35.5609 23.4296L47.7138 20.5684L49.0469 28.3414ZM61.5626 14.8128L34.5539 21.1718C33.4012 21.4435 32.1843 21.4435 31.0316 21.1718L13.1274 16.9562L33.0924 14.2294C33.9781 14.1092 34.5611 13.4887 34.3949 12.8437C34.2298 12.198 33.3594 11.7757 32.4931 11.896L11.7239 14.7311C10.4601 14.9033 9.32779 15.2989 8.35242 15.8318L4.02186 14.812C3.22179 14.6228 3.26154 13.8665 4.02186 13.6876L31.0306 7.32854C32.5695 6.96636 33.868 7.16749 34.5529 7.32854L61.5616 13.6876C62.3148 13.865 62.3678 14.6228 61.5626 14.8128Z" fill="#2183BB"/>
</g>
<defs>
<clipPath id="clip0_167_909">
<rect width="65.2286" height="38" fill="white" transform="translate(0.178467)"/>
</clipPath>
</defs>
</svg>
