<svg width="109" height="107" viewBox="0 0 109 107" fill="none" xmlns="http://www.w3.org/2000/svg">
<g clip-path="url(#clip0_160_780)">
<path d="M91.5616 47.6012C92.2588 45.3937 92.6498 42.9798 92.6498 40.4628C92.6498 29.5284 85.3387 20.657 76.3274 20.657C72.9779 20.657 69.8494 21.8949 67.2651 23.9992C62.5554 14.0963 53.765 7.45312 43.6826 7.45312C28.6523 7.45312 16.4785 22.225 16.4785 40.4628C16.4785 41.0199 16.4955 41.5769 16.5125 42.1339C6.99111 46.1983 0.156097 57.2152 0.156097 70.1716C0.156097 86.5732 11.1227 99.8803 24.6397 99.8803H87.209C99.2298 99.8803 108.972 88.0587 108.972 73.4725C108.972 60.7019 101.491 50.0356 91.5616 47.6012ZM67.044 60.2686H55.9244V83.3754C55.9244 85.191 54.7002 86.6764 53.204 86.6764H45.0428C43.5465 86.6764 42.3223 85.191 42.3223 83.3754V60.2686H31.2027C28.7713 60.2686 27.5642 56.7201 29.2814 54.6364L47.2021 32.8912C48.2562 31.6121 49.9905 31.6121 51.0446 32.8912L68.9653 54.6364C70.6826 56.7201 69.4584 60.2686 67.044 60.2686Z" fill="#FFCDCD"/>
</g>
<defs>
<clipPath id="clip0_160_780">
<rect width="108.816" height="105.631" fill="white" transform="translate(0.156097 0.851562)"/>
</clipPath>
</defs>
</svg>
