<svg width="24" height="22" viewBox="0 0 24 22" fill="none" xmlns="http://www.w3.org/2000/svg">
<path d="M6.75153 10.7961C6.75153 14.4523 8.6022 17.4181 10.8837 17.4181C13.1652 17.4181 15.0159 14.4523 15.0159 10.7961C15.0159 7.13985 13.1652 4.17406 10.8837 4.17406C8.6022 4.17406 6.75153 7.13985 6.75153 10.7961ZM11.246 6.83385C11.246 7.234 11.246 7.234 11.4957 7.29677C11.6867 7.34384 11.8678 7.438 12.049 7.56353C12.1469 7.63415 12.1811 7.74399 12.1518 7.90875C12.1077 8.15198 12.0636 8.40305 12.0147 8.64628C11.9706 8.87381 11.9217 8.91304 11.7846 8.8032C11.5055 8.59136 11.2166 8.4972 10.9082 8.52859C10.8299 8.53643 10.7515 8.55212 10.6732 8.60705C10.4088 8.79535 10.3647 9.25826 10.59 9.54857C10.7026 9.69764 10.8348 9.79964 10.967 9.89379C11.202 10.0507 11.437 10.1998 11.6573 10.3959C12.3672 11.0236 12.5581 12.4516 12.0588 13.4245C11.8776 13.7776 11.6426 14.0129 11.3684 14.1306C11.2509 14.1855 11.1971 14.2797 11.202 14.4837C11.2069 14.6798 11.202 14.876 11.202 15.0721C11.202 15.2448 11.1481 15.3389 11.0404 15.3467C10.9082 15.3546 10.776 15.3546 10.6487 15.3467C10.5312 15.3467 10.4774 15.2369 10.4774 15.0564C10.4774 14.9152 10.4774 14.774 10.4774 14.6249C10.4774 14.3111 10.4676 14.2954 10.2815 14.2483C10.0416 14.1855 9.80171 14.0992 9.58139 13.9266C9.40514 13.7932 9.39045 13.7226 9.43941 13.4323C9.47858 13.2126 9.51285 13.0008 9.55692 12.7811C9.60587 12.53 9.64994 12.4987 9.79192 12.6163C10.0367 12.8203 10.2962 12.938 10.5704 12.993C10.7466 13.0243 10.918 13.0008 11.0796 12.8831C11.3831 12.6713 11.4321 12.1064 11.1726 11.769C11.0845 11.6513 10.9865 11.565 10.8837 11.4944C10.6193 11.3061 10.3403 11.1648 10.0857 10.9216C9.67931 10.5293 9.41983 9.99579 9.4492 9.1955C9.48348 8.29321 9.80171 7.73614 10.3158 7.438C10.5263 7.31246 10.5312 7.32031 10.5312 6.96724C10.5312 6.84955 10.5312 6.72401 10.5312 6.60632C10.5361 6.33956 10.5655 6.29248 10.7319 6.28464C10.7858 6.28464 10.8348 6.28464 10.8886 6.28464C11.2411 6.2611 11.2411 6.2611 11.246 6.83385ZM18.0367 10.7961C18.0367 11.8082 17.5226 12.632 16.8911 12.632C16.2595 12.632 15.7454 11.8082 15.7454 10.7961C15.7454 9.78395 16.2595 8.96012 16.8911 8.96012C17.5226 8.96012 18.0367 9.78395 18.0367 10.7961ZM4.87148 8.96012C5.50306 8.96012 6.01714 9.78395 6.01714 10.7961C6.01714 11.8082 5.50306 12.632 4.87148 12.632C4.2399 12.632 3.72583 11.8082 3.72583 10.7961C3.72583 9.78395 4.2399 8.96012 4.87148 8.96012ZM0 18.5714V3.0207C0 1.35736 0.847001 0 1.88494 0H19.8776C20.9155 0 21.7625 1.35736 21.7625 3.0207V12.5536H20.1518V6.28464C20 6.3474 19.8433 6.37879 19.6818 6.37879C18.6291 6.37879 17.7723 5.00574 17.7723 3.31885C17.7723 3.05994 17.7919 2.80886 17.8311 2.57348H3.82375C3.84333 2.75394 3.85802 2.94225 3.85802 3.13839C3.85802 4.82528 3.00122 6.19833 1.94859 6.19833C1.83599 6.19833 1.72338 6.18264 1.61567 6.15125V15.4409C1.72338 15.4095 1.83599 15.3938 1.94859 15.3938C3.00122 15.3938 3.85802 16.7669 3.85802 18.4538C3.85802 18.6499 3.84822 18.8304 3.82375 19.0187H15.011V21.6H1.88984C0.847001 21.5922 0 20.2348 0 18.5714ZM21.5226 19.4267C21.6548 19.4267 21.7625 19.5993 21.7625 19.8111V21.2077C21.7625 21.4195 21.6548 21.5922 21.5226 21.5922H15.7454C15.6132 21.5922 15.5055 21.4195 15.5055 21.2077V19.8111C15.5055 19.5993 15.6132 19.4267 15.7454 19.4267H21.5226ZM22.6438 18.5558H16.8666C16.7344 18.5558 16.6267 18.3831 16.6267 18.1713V16.7747C16.6267 16.5629 16.7344 16.3903 16.8666 16.3903H22.6438C22.776 16.3903 22.8837 16.5629 22.8837 16.7747V18.1713C22.8837 18.3831 22.776 18.5558 22.6438 18.5558ZM24 13.7383V15.1349C24 15.3468 23.8923 15.5194 23.7601 15.5194H17.9829C17.8507 15.5194 17.743 15.3468 17.743 15.1349V13.7383C17.743 13.5265 17.8507 13.3539 17.9829 13.3539H23.7601C23.8923 13.3539 24 13.5265 24 13.7383Z" fill="#CF4C42"/>
</svg>
