<svg width="94" height="94" viewBox="0 0 94 94" fill="none" xmlns="http://www.w3.org/2000/svg">
<g filter="url(#filter0_d_65_1062)">
<path d="M72 13H22C18.6863 13 16 15.6863 16 19V69C16 72.3137 18.6863 75 22 75H72C75.3137 75 78 72.3137 78 69V19C78 15.6863 75.3137 13 72 13Z" fill="white"/>
<path d="M55.5 40C55.5 37.6131 54.5518 35.3239 52.864 33.636C51.1761 31.9482 48.8869 31 46.5 31C44.1131 31 41.8239 31.9482 40.136 33.636C38.4482 35.3239 37.5 37.6131 37.5 40C37.5 50.5 33 53.5 33 53.5H60C60 53.5 55.5 50.5 55.5 40Z" stroke="black" stroke-width="3" stroke-linecap="round" stroke-linejoin="round"/>
<path d="M49.095 59.5C48.8313 59.9546 48.4528 60.332 47.9973 60.5943C47.5419 60.8566 47.0256 60.9947 46.5 60.9947C45.9744 60.9947 45.4581 60.8566 45.0027 60.5943C44.5472 60.332 44.1687 59.9546 43.905 59.5" stroke="black" stroke-width="3" stroke-linecap="round" stroke-linejoin="round"/>
</g>
<defs>
<filter id="filter0_d_65_1062" x="0" y="0" width="94" height="94" filterUnits="userSpaceOnUse" color-interpolation-filters="sRGB">
<feFlood flood-opacity="0" result="BackgroundImageFix"/>
<feColorMatrix in="SourceAlpha" type="matrix" values="0 0 0 0 0 0 0 0 0 0 0 0 0 0 0 0 0 0 127 0" result="hardAlpha"/>
<feOffset dy="3"/>
<feGaussianBlur stdDeviation="8"/>
<feColorMatrix type="matrix" values="0 0 0 0 0.270588 0 0 0 0 0.231373 0 0 0 0 0.717647 0 0 0 0.059 0"/>
<feBlend mode="normal" in2="BackgroundImageFix" result="effect1_dropShadow_65_1062"/>
<feBlend mode="normal" in="SourceGraphic" in2="effect1_dropShadow_65_1062" result="shape"/>
</filter>
</defs>
</svg>
