<svg width="23" height="27" viewBox="0 0 23 27" fill="none" xmlns="http://www.w3.org/2000/svg">
<path d="M11.8617 1.75684C14.387 1.75684 16.8088 2.97406 18.5944 5.14075C20.38 7.30743 21.3832 10.2461 21.3832 13.3102C21.3832 16.3744 20.38 19.313 18.5944 21.4797C16.8088 23.6464 14.387 24.8636 11.8617 24.8636C9.33651 24.8636 6.9147 23.6464 5.12909 21.4797C3.34348 19.313 2.34033 16.3744 2.34033 13.3102C2.34033 10.2461 3.34348 7.30743 5.12909 5.14075C6.9147 2.97406 9.33651 1.75684 11.8617 1.75684ZM10.6756 15.5895L8.56053 13.0214C8.48471 12.9294 8.39469 12.8564 8.29562 12.8066C8.19655 12.7568 8.09036 12.7312 7.98313 12.7312C7.8759 12.7312 7.76971 12.7568 7.67064 12.8066C7.57157 12.8564 7.48155 12.9294 7.40572 13.0214C7.25259 13.2072 7.16655 13.4592 7.16655 13.722C7.16655 13.9848 7.25259 14.2368 7.40572 14.4227L10.0989 17.6906C10.1745 17.7831 10.2645 17.8565 10.3636 17.9066C10.4627 17.9566 10.569 17.9824 10.6763 17.9824C10.7837 17.9824 10.89 17.9566 10.9891 17.9066C11.0882 17.8565 11.1781 17.7831 11.2537 17.6906L16.8306 10.922C16.9074 10.8304 16.9685 10.7212 17.0104 10.6007C17.0523 10.4803 17.0741 10.351 17.0746 10.2203C17.0751 10.0895 17.0543 9.96 17.0133 9.83909C16.9724 9.71819 16.9121 9.60833 16.836 9.51584C16.7598 9.42335 16.6693 9.35006 16.5698 9.30021C16.4702 9.25036 16.3634 9.22493 16.2557 9.22538C16.148 9.22583 16.0414 9.25216 15.9421 9.30285C15.8428 9.35354 15.7527 9.42759 15.6771 9.52072L10.6756 15.5895Z" fill="#06C00D"/>
</svg>
