<svg width="21" height="21" viewBox="0 0 21 21" fill="none" xmlns="http://www.w3.org/2000/svg">
<path d="M19.7871 10.5249C19.7871 12.305 19.2592 14.0451 18.2703 15.5251C17.2813 17.0052 15.8757 18.1587 14.2311 18.8399C12.5865 19.5211 10.7768 19.6992 9.031 19.3519C7.28514 19.0046 5.6815 18.1473 4.42286 16.8886C3.16422 15.6298 2.30712 14.0261 1.95995 12.2802C1.61277 10.5343 1.79112 8.7247 2.47243 7.08018C3.15375 5.43566 4.30743 4.03011 5.78758 3.04128C7.26773 2.05244 9.00787 1.52474 10.7879 1.5249C13.1747 1.52512 15.4637 2.47343 17.1514 4.16123C18.839 5.84904 19.7871 8.1381 19.7871 10.5249Z" stroke="#54536E" stroke-width="1.69912" stroke-linecap="round" stroke-linejoin="round"/>
<path d="M10.7881 5.125V10.525L14.3881 12.325" stroke="#54536E" stroke-width="1.69912" stroke-linecap="round" stroke-linejoin="round"/>
</svg>
