<svg width="10" height="13" viewBox="0 0 10 13" fill="none" xmlns="http://www.w3.org/2000/svg">
<path d="M4.90234 12.0633C2.44958 12.0633 0.454102 9.63402 0.454102 6.648C0.454102 3.66198 2.44958 1.23267 4.90234 1.23267C7.35511 1.23267 9.35058 3.66198 9.35058 6.648C9.35058 9.63402 7.35511 12.0633 4.90234 12.0633ZM4.74307 7.06477L5.89312 8.08227L6.08054 7.76834L5.23649 7.02073L5.06162 6.86584V6.60257V4.163H4.74307V7.06477Z" fill="#E2A925"/>
<path d="M4.90232 1.74984C2.67968 1.74984 0.878854 3.94218 0.878854 6.64804C0.878854 9.3539 2.67968 11.5462 4.90232 11.5462C7.12496 11.5462 8.92578 9.3539 8.92578 6.64804C8.92578 3.94218 7.12496 1.74984 4.90232 1.74984ZM5.94361 8.70994C5.90379 8.70994 5.86354 8.69524 5.82868 8.66459L4.39776 7.39857C4.34747 7.35314 4.31826 7.28204 4.31826 7.20698V3.88292C4.31826 3.75257 4.40588 3.64591 4.51295 3.64591H5.29169C5.39876 3.64591 5.48637 3.75257 5.48637 3.88292V6.60261L6.51657 7.5151C6.60418 7.59213 6.62202 7.74026 6.55875 7.84691L6.10124 8.61324C6.06314 8.67627 6.00387 8.70994 5.94361 8.70994ZM4.90232 0.715576C7.58931 0.715576 9.77534 3.37687 9.77534 6.64804C9.77534 9.9192 7.58931 12.5805 4.90232 12.5805C2.21533 12.5805 0.0292969 9.9192 0.0292969 6.64804C0.0292969 3.37687 2.21533 0.715576 4.90232 0.715576Z" fill="white"/>
</svg>
