<svg width="21" height="21" viewBox="0 0 21 21" fill="none" xmlns="http://www.w3.org/2000/svg">
<path d="M7.51855 15.3516L10.7884 19.3485L14.0582 15.3516" stroke="#54536E" stroke-width="1.69912" stroke-linecap="round" stroke-linejoin="round"/>
<path d="M10.7881 10.3552V19.3484" stroke="#54536E" stroke-width="1.69912" stroke-linecap="round" stroke-linejoin="round"/>
<path d="M18.0503 16.4411C18.761 15.8305 19.294 14.9589 19.5721 13.9529C19.8501 12.9469 19.8587 11.8588 19.5967 10.8464C19.3346 9.83403 18.8155 8.95003 18.1146 8.32268C17.4138 7.69532 16.5676 7.35724 15.6989 7.35748H14.6615C14.4159 6.18596 13.956 5.09784 13.3165 4.17508C12.6769 3.25231 11.8745 2.51894 10.9695 2.03021C10.0645 1.54147 9.08059 1.31011 8.09186 1.35355C7.10313 1.39698 6.13535 1.71408 5.2614 2.28096C4.38745 2.84784 3.63011 3.64973 3.04642 4.62623C2.46273 5.60273 2.06791 6.7284 1.89169 7.91845C1.71546 9.10851 1.76243 10.3319 2.02905 11.4966C2.29567 12.6612 2.77499 13.7367 3.43092 14.6421" stroke="#54536E" stroke-width="1.69912" stroke-linecap="round" stroke-linejoin="round"/>
</svg>
