<svg width="32" height="27" viewBox="0 0 32 27" fill="none" xmlns="http://www.w3.org/2000/svg">
<path d="M31.0325 3.12622C31.0308 2.42916 30.8024 1.76129 30.3975 1.26849C29.9925 0.775685 29.4438 0.498003 28.8713 0.496094H2.94363C2.3712 0.498276 1.82273 0.776078 1.41796 1.26885C1.01319 1.76162 0.784995 2.42933 0.783203 3.12622V7.07191H31.0325V3.12622Z" fill="#40997E"/>
<path d="M0.783203 24.1692C0.784771 24.8663 1.01286 25.5343 1.41766 26.0273C1.82245 26.5202 2.37105 26.7982 2.94363 26.8004H28.8713C29.4437 26.7982 29.9922 26.5204 30.3969 26.0276C30.8017 25.5348 31.0299 24.8671 31.0317 24.1703V11.0176H0.783203V24.1692ZM10.3713 20.2235H21.4444C21.695 20.2243 21.9351 20.3459 22.1123 20.5616C22.2895 20.7773 22.3893 21.0696 22.39 21.3747C22.3893 21.6797 22.2895 21.972 22.1123 22.1877C21.9351 22.4034 21.695 22.525 21.4444 22.5258H10.3713C10.1207 22.525 9.88062 22.4034 9.70344 22.1877C9.52626 21.972 9.42642 21.6797 9.42575 21.3747C9.42642 21.0696 9.52626 20.7773 9.70344 20.5616C9.88062 20.3459 10.1207 20.2243 10.3713 20.2235ZM5.51014 20.2235H6.32062C6.57104 20.2246 6.81094 20.3463 6.98794 20.5619C7.16494 20.7776 7.26466 21.0698 7.26533 21.3747C7.26465 21.6797 7.16482 21.972 6.98764 22.1877C6.81046 22.4034 6.57034 22.525 6.31977 22.5258H5.50929C5.25872 22.525 5.01861 22.4034 4.84142 22.1877C4.66424 21.972 4.56441 21.6797 4.56373 21.3747C4.56441 21.0696 4.66424 20.7773 4.84142 20.5616C5.01861 20.3459 5.25957 20.2243 5.51014 20.2235Z" fill="#40997E"/>
</svg>
