<svg width="28" height="24" viewBox="0 0 28 24" fill="none" xmlns="http://www.w3.org/2000/svg">
<path d="M27.2507 2.3515C27.2498 1.73519 27.0485 1.14439 26.6908 0.708301C26.333 0.272214 25.848 0.0263271 25.3418 0.0244141H2.43006C1.92337 0.0255078 1.4377 0.271033 1.07941 0.707209C0.721132 1.14338 0.519453 1.73465 0.518555 2.3515V5.83799H27.2507V2.3515Z" fill="#F03838"/>
<path d="M0.518555 20.9453C0.519902 21.5618 0.721779 22.1525 1.08001 22.5882C1.43825 23.024 1.92367 23.2692 2.43006 23.2703H25.3418C25.8479 23.2686 26.3329 23.0232 26.6907 22.5875C27.0486 22.1518 27.2502 21.5614 27.2516 20.9453V9.32227H0.518555V20.9453ZM8.99204 17.4588H18.7781C18.9994 17.4596 19.2114 17.567 19.3679 17.7575C19.5243 17.948 19.6125 18.2061 19.6132 18.4755C19.6125 18.7448 19.5243 19.003 19.3679 19.1935C19.2114 19.3839 18.9994 19.4913 18.7781 19.4921H8.99204C8.77076 19.4913 8.55874 19.3839 8.40227 19.1935C8.2458 19.003 8.1576 18.7448 8.15693 18.4755C8.1576 18.2061 8.2458 17.948 8.40227 17.7575C8.55874 17.567 8.77076 17.4596 8.99204 17.4588ZM4.69583 17.4588H5.41201C5.63329 17.4596 5.84531 17.567 6.00178 17.7575C6.15825 17.948 6.24645 18.2061 6.24712 18.4755C6.24645 18.7448 6.15825 19.003 6.00178 19.1935C5.84531 19.3839 5.63329 19.4913 5.41201 19.4921H4.69583C4.47455 19.4913 4.26253 19.3839 4.10606 19.1935C3.94959 19.003 3.86139 18.7448 3.86071 18.4755C3.86139 18.2061 3.94959 17.948 4.10606 17.7575C4.26253 17.567 4.47455 17.4596 4.69583 17.4588Z" fill="#F03838"/>
</svg>
