<svg width="13" height="12" viewBox="0 0 13 12" fill="none" xmlns="http://www.w3.org/2000/svg">
<path d="M6.51867 1.39322C6.79582 1.39322 7.05638 1.52459 7.25235 1.76315L12.2146 7.80433C12.4106 8.04291 12.5186 8.36013 12.5186 8.69753C12.5186 9.03494 12.4106 9.35216 12.2146 9.59073L11.6359 10.2953C11.4399 10.5339 11.1793 10.6653 10.9022 10.6653C10.626 10.6653 10.366 10.5346 10.1702 10.2974L6.51868 5.87278L2.86714 10.2974C2.67136 10.5346 2.41141 10.6653 2.13519 10.6653C1.85804 10.6653 1.59748 10.5339 1.40151 10.2953L0.822739 9.59071C0.626754 9.35213 0.518826 9.03491 0.518826 8.6975C0.518826 8.3601 0.626762 8.04288 0.822755 7.80431L5.78498 1.76318C5.98098 1.52459 6.24154 1.39322 6.51867 1.39322Z" fill="#F03838"/>
<path d="M6.5187 1.91055C6.36187 1.91055 6.20504 1.98338 6.08537 2.12904L1.12313 8.17019C0.883798 8.46152 0.883798 8.93389 1.12313 9.22525L1.7019 9.92985C1.94082 10.2207 2.32803 10.2213 2.56751 9.93109L6.51871 5.14337L10.4699 9.93109C10.7094 10.2213 11.0966 10.2207 11.3355 9.92985L11.9143 9.22525C12.1536 8.93392 12.1536 8.46155 11.9143 8.17019L6.95203 2.12904C6.83237 1.98338 6.67554 1.91055 6.5187 1.91055ZM6.5187 0.876296C6.90929 0.876296 7.27651 1.06145 7.55272 1.39766L12.515 7.43887C12.7912 7.77513 12.9434 8.22219 12.9434 8.69774C12.9434 9.17329 12.7912 9.62037 12.515 9.95662L11.9363 10.6612C11.6601 10.9974 11.2928 11.1826 10.9022 11.1826C10.5129 11.1826 10.1466 10.9985 9.87063 10.6642L6.51871 6.60261L3.16683 10.6641C2.89089 10.9985 2.52453 11.1826 2.13522 11.1826C1.74463 11.1826 1.3774 10.9974 1.10119 10.6612L0.522395 9.95659C0.246187 9.62032 0.0940742 9.17325 0.0940742 8.69771C0.0940742 8.22215 0.246196 7.77507 0.522429 7.43883L5.48464 1.39772C5.76087 1.06146 6.12809 0.876296 6.5187 0.876296Z" fill="white"/>
</svg>
