<svg width="28" height="24" viewBox="0 0 28 24" fill="none" xmlns="http://www.w3.org/2000/svg">
<path d="M27.5173 2.3515C27.5164 1.73519 27.3151 1.14439 26.9574 0.708301C26.5996 0.272214 26.1146 0.0263271 25.6084 0.0244141H2.69666C2.18997 0.0255078 1.7043 0.271033 1.34602 0.707209C0.987733 1.14338 0.786055 1.73465 0.785156 2.3515V5.83799H27.5173V2.3515Z" fill="#E2A925"/>
<path d="M0.785156 20.9453C0.786503 21.5618 0.98838 22.1525 1.34661 22.5882C1.70485 23.024 2.19027 23.2692 2.69666 23.2703H25.6084C26.1145 23.2686 26.5995 23.0232 26.9573 22.5875C27.3152 22.1518 27.5168 21.5614 27.5182 20.9453V9.32227H0.785156V20.9453ZM9.25864 17.4588H19.0447C19.266 17.4596 19.478 17.567 19.6345 17.7575C19.7909 17.948 19.8791 18.2061 19.8798 18.4755C19.8791 18.7448 19.7909 19.003 19.6345 19.1935C19.478 19.3839 19.266 19.4913 19.0447 19.4921H9.25864C9.03736 19.4913 8.82534 19.3839 8.66887 19.1935C8.5124 19.003 8.4242 18.7448 8.42353 18.4755C8.4242 18.2061 8.5124 17.948 8.66887 17.7575C8.82534 17.567 9.03736 17.4596 9.25864 17.4588ZM4.96243 17.4588H5.67861C5.89989 17.4596 6.11191 17.567 6.26838 17.7575C6.42485 17.948 6.51305 18.2061 6.51372 18.4755C6.51305 18.7448 6.42485 19.003 6.26838 19.1935C6.11191 19.3839 5.89989 19.4913 5.67861 19.4921H4.96243C4.74115 19.4913 4.52913 19.3839 4.37266 19.1935C4.21619 19.003 4.12799 18.7448 4.12732 18.4755C4.12799 18.2061 4.21619 17.948 4.37266 17.7575C4.52913 17.567 4.74115 17.4596 4.96243 17.4588Z" fill="#E2A925"/>
</svg>
