<svg width="25" height="25" viewBox="0 0 25 25" fill="none" xmlns="http://www.w3.org/2000/svg">
<path d="M5.06603 0H0.723718C0.531981 0.000955209 0.348289 0.110344 0.21271 0.304306C0.0771308 0.498268 0.00066769 0.761063 0 1.03536V23.8182C0.00066769 24.0925 0.0771308 24.3553 0.21271 24.5493C0.348289 24.7432 0.531981 24.8526 0.723718 24.8536H5.06603C5.25776 24.8526 5.44146 24.7432 5.57703 24.5493C5.71261 24.3553 5.78908 24.0925 5.78974 23.8182V1.03657C5.78908 0.76227 5.71261 0.499476 5.57703 0.305515C5.44146 0.111553 5.25776 0.000955209 5.06603 0ZM4.34231 6.21339H1.44744V4.14266H4.34231V6.21339ZM12.3049 0H7.96174C7.77001 0.000955209 7.58632 0.110344 7.45074 0.304306C7.31516 0.498268 7.23869 0.761063 7.23802 1.03536V23.8182C7.23869 24.0925 7.31516 24.3553 7.45074 24.5493C7.58632 24.7432 7.77001 24.8526 7.96174 24.8536H12.3049C12.4966 24.8526 12.6803 24.7432 12.8159 24.5493C12.9515 24.3553 13.0279 24.0925 13.0286 23.8182V1.03657C13.0279 0.76227 12.9515 0.499476 12.8159 0.305515C12.6803 0.111553 12.4966 0.000955209 12.3049 0ZM11.5812 6.21339H8.68546V4.14266H11.5812V6.21339ZM17.3059 1.6056L13.4272 4.4012C13.2562 4.52542 13.1265 4.74134 13.0664 5.00185C13.0063 5.26236 13.0206 5.54632 13.1063 5.79176L19.6206 24.287C19.7074 24.5316 19.8584 24.7171 20.0405 24.8031C20.2226 24.8891 20.421 24.8686 20.5926 24.7461L24.4713 21.9504C24.6423 21.8262 24.772 21.6103 24.8321 21.3498C24.8922 21.0893 24.8779 20.8053 24.7922 20.5599L18.2779 2.06106C18.1911 1.81646 18.0401 1.63091 17.858 1.5449C17.6759 1.4589 17.4775 1.47941 17.3059 1.60198V1.6056ZM20.9912 23.8218C20.9912 24.0266 20.9488 24.2268 20.8692 24.397C20.7897 24.5673 20.6767 24.7 20.5444 24.7784C20.4122 24.8567 20.2667 24.8773 20.1263 24.8373C19.9859 24.7974 19.857 24.6987 19.7557 24.5539C19.6545 24.4091 19.5856 24.2247 19.5577 24.0238C19.5297 23.823 19.5441 23.6148 19.5989 23.4256C19.6536 23.2364 19.7464 23.0747 19.8654 22.961C19.9844 22.8472 20.1243 22.7865 20.2675 22.7865C20.459 22.7865 20.6427 22.8951 20.7783 23.0884C20.914 23.2818 20.9905 23.5442 20.9912 23.8182V23.8218Z" fill="#D04D42"/>
</svg>
