<svg width="15" height="12" viewBox="0 0 15 12" fill="none" xmlns="http://www.w3.org/2000/svg">
<path d="M7.78305 10.9958C7.48437 10.9958 7.20357 10.8542 6.99237 10.5971L1.37733 3.76129C1.16613 3.50418 1.0498 3.16232 1.0498 2.7987C1.0498 2.43507 1.16613 2.09322 1.37735 1.8361L2.03223 1.03885C2.24343 0.781737 2.52424 0.640137 2.82292 0.640137C3.1206 0.640137 3.40073 0.780931 3.61173 1.03658L7.78305 6.09099L11.9543 1.03659C12.1653 0.780931 12.4455 0.640137 12.7431 0.640137C13.0418 0.640137 13.3226 0.781737 13.5338 1.03885L14.1887 1.83612C14.3999 2.09325 14.5163 2.4351 14.5163 2.79873C14.5163 3.16235 14.3999 3.50421 14.1887 3.76131L8.57374 10.5971C8.36252 10.8542 8.08173 10.9958 7.78305 10.9958Z" fill="#40997E"/>
<path d="M7.78302 10.4785C7.96049 10.4785 8.13795 10.3961 8.27335 10.2312L13.8884 3.39543C14.1592 3.06578 14.1592 2.53127 13.8884 2.20159L13.2334 1.40431C12.9631 1.07519 12.5249 1.07456 12.254 1.4029L7.78302 6.82041L3.31205 1.4029C3.04107 1.07456 2.60291 1.07519 2.33257 1.40431L1.67767 2.20159C1.40686 2.53124 1.40686 3.06575 1.67767 3.39543L7.29269 10.2312C7.4281 10.3961 7.60556 10.4785 7.78302 10.4785ZM7.78302 11.5127C7.37089 11.5127 6.98341 11.3174 6.69199 10.9626L1.07694 4.12676C0.785507 3.77197 0.625 3.30025 0.625 2.79849C0.625 2.29672 0.785515 1.825 1.07698 1.47022L1.73184 0.672977C2.02327 0.318195 2.41074 0.122803 2.82289 0.122803C3.23366 0.122803 3.62022 0.317078 3.91136 0.669853L7.78302 5.36116L11.6546 0.669864C11.9458 0.317078 12.3324 0.122803 12.7431 0.122803C13.1553 0.122803 13.5427 0.318195 13.8342 0.672977L14.4891 1.47026C14.7805 1.82505 14.941 2.29677 14.941 2.79852C14.941 3.30029 14.7805 3.77201 14.489 4.12679L8.87408 10.9626C8.58263 11.3174 8.19516 11.5127 7.78302 11.5127Z" fill="white"/>
</svg>
