<svg width="753" height="231" viewBox="0 0 753 231" fill="none" xmlns="http://www.w3.org/2000/svg">
<path d="M0.716797 230.043C0.716797 230.043 42.1709 182.242 113.623 197.645C185.075 213.048 196.983 180.429 202.938 172.275C208.892 164.121 231.965 121.533 275.878 115.19C319.792 108.847 332.444 107.035 356.262 87.1003C380.079 67.166 405.385 56.2928 438.134 69.884C470.882 83.4752 502.887 47.2336 502.887 39.0764C502.887 30.9192 543.823 4.64393 573.595 19.1422C603.367 33.6404 639.096 13.7051 650.256 2.83188C661.417 -8.04128 752.968 19.1422 752.968 19.1422V230.043H0.716797Z" fill="url(#paint0_linear_307_371)"/>
<defs>
<linearGradient id="paint0_linear_307_371" x1="391.135" y1="-388.061" x2="389.801" y2="287.054" gradientUnits="userSpaceOnUse">
<stop stop-color="#CF4D40"/>
<stop offset="1" stop-color="#D14D41" stop-opacity="0.23"/>
</linearGradient>
</defs>
</svg>
