<svg width="24" height="22" viewBox="0 0 24 22" fill="none" xmlns="http://www.w3.org/2000/svg">
<g clip-path="url(#clip0_307_594)">
<path d="M23.2323 0.249023H10.4742C10.0497 0.249023 9.70642 0.558957 9.70642 0.940393V5.81688L10.2615 5.23276C10.5251 4.95505 10.8726 4.7838 11.242 4.71225V1.6315H22.4645V10.659H11.242V9.1478L10.8963 9.51167C10.5941 9.82898 10.1676 10.0259 9.70642 10.0647V11.3501C9.70642 11.7316 10.0497 12.0411 10.4742 12.0411H14.6176L12.5126 20.6425C12.4183 21.0282 12.6891 21.4097 13.1181 21.4948C13.5431 21.5788 13.9705 21.3358 14.0639 20.9505L16.2442 12.0411H17.5116L19.6918 20.9505C19.7735 21.2841 20.1023 21.5117 20.4668 21.5113C20.5234 21.5113 20.5813 21.5061 20.6386 21.4948C21.0675 21.4097 21.3383 21.0282 21.2432 20.6425L19.1383 12.0411H23.2324C23.6564 12.0411 24.0001 11.7316 24.0001 11.3501V0.940393C24.0001 0.558957 23.6564 0.249023 23.2323 0.249023Z" fill="#CF4C42"/>
<path d="M17.1336 4.28633C17.0731 4.14906 16.9016 4.08166 16.7492 4.136L12.2258 5.57289C11.8107 5.28362 11.2118 5.3353 10.8656 5.69767L9.43027 7.2062L8.15759 6.22436C8.16598 6.30544 8.18506 6.38423 8.18506 6.46743V8.59887L8.89312 9.1449C9.31331 9.46878 9.94188 9.41872 10.2932 9.04788L12.0019 7.24959L13.38 6.52401L17.0067 4.61432C17.1321 4.54926 17.1876 4.41022 17.1336 4.28633Z" fill="#CF4C42"/>
<path d="M5.39107 4.66895H4.53868C3.88603 4.66895 3.31215 4.95443 2.94738 5.38958L0.330906 7.55761C-0.0767775 7.88445 -0.113755 8.4506 0.253371 8.81972L2.38806 10.9641C2.75199 11.3309 3.38198 11.3633 3.78962 11.0337C4.19833 10.704 4.23286 10.1394 3.86661 9.77199L2.39522 8.29321L4.48517 6.61007L3.26796 8.09843L4.45864 9.29486C5.11659 9.95657 5.05455 10.9733 4.31966 11.5659C3.81791 11.9707 3.13319 12.0657 2.53959 11.879C2.53959 11.879 2.54881 16.0129 2.54881 20.44C2.54881 21.0321 3.08209 21.5121 3.74008 21.5121C4.39739 21.5121 4.93136 21.0321 4.93136 20.44C4.93136 16.0142 4.93136 18.5398 4.93136 14.0501H5.72598C5.72598 18.5365 5.72598 16.0129 5.72598 20.44C5.72598 20.7491 5.6302 21.0354 5.47748 21.2888C5.67738 21.4272 5.92612 21.5121 6.19722 21.5121C6.85555 21.5121 7.38883 21.0321 7.38883 20.44C7.38883 16.0142 7.39035 17.8695 7.39035 6.46777C7.39045 5.47428 6.49559 4.66895 5.39107 4.66895Z" fill="#CF4C42"/>
<path d="M3.90337 4.02509C4.22189 4.17409 4.5795 4.26656 4.96365 4.26656C5.34877 4.26656 5.70638 4.17409 6.02584 4.02482C6.77147 3.67715 7.28543 2.98499 7.28543 2.17714C7.28543 1.02312 6.24594 0.0878906 4.9636 0.0878906C3.68145 0.0878906 2.64221 1.02312 2.64221 2.17714C2.64226 2.98543 3.15676 3.67786 3.90337 4.02509Z" fill="#CF4C42"/>
</g>
<defs>
<clipPath id="clip0_307_594">
<rect width="24" height="21.6" fill="white"/>
</clipPath>
</defs>
</svg>
