<svg width="24" height="22" viewBox="0 0 24 22" fill="none" xmlns="http://www.w3.org/2000/svg">
<g clip-path="url(#clip0_66_1426)">
<path d="M23.2323 0.249756H10.4742C10.0497 0.249756 9.70642 0.559689 9.70642 0.941125V5.81761L10.2615 5.2335C10.5251 4.95578 10.8726 4.78453 11.242 4.71298V1.63223H22.4645V10.6597H11.242V9.14853L10.8963 9.5124C10.5941 9.82971 10.1676 10.0266 9.70642 10.0654V11.3509C9.70642 11.7323 10.0497 12.0418 10.4742 12.0418H14.6176L12.5126 20.6432C12.4183 21.0289 12.6891 21.4104 13.1181 21.4955C13.5431 21.5795 13.9705 21.3366 14.0639 20.9512L16.2442 12.0419H17.5116L19.6918 20.9512C19.7735 21.2848 20.1023 21.5124 20.4668 21.512C20.5234 21.512 20.5813 21.5069 20.6386 21.4955C21.0675 21.4104 21.3383 21.029 21.2432 20.6432L19.1383 12.0418H23.2324C23.6564 12.0418 24.0001 11.7323 24.0001 11.3509V0.941125C24.0001 0.559689 23.6564 0.249756 23.2323 0.249756Z" fill="black"/>
<path d="M17.1336 4.28657C17.0731 4.14931 16.9016 4.08191 16.7492 4.13624L12.2258 5.57314C11.8107 5.28386 11.2118 5.33555 10.8656 5.69791L9.43027 7.20645L8.15759 6.22461C8.16598 6.30569 8.18506 6.38447 8.18506 6.46767V8.59911L8.89312 9.14514C9.31331 9.46902 9.94188 9.41897 10.2932 9.04813L12.0019 7.24983L13.38 6.52426L17.0067 4.61456C17.1321 4.5495 17.1876 4.41047 17.1336 4.28657Z" fill="black"/>
<path d="M5.39107 4.6687H4.53868C3.88603 4.6687 3.31215 4.95418 2.94738 5.38933L0.330906 7.55737C-0.0767775 7.88421 -0.113755 8.45036 0.253371 8.81948L2.38806 10.9639C2.75199 11.3306 3.38198 11.3631 3.78962 11.0335C4.19833 10.7038 4.23286 10.1391 3.86661 9.77174L2.39522 8.29296L4.48517 6.60982L3.26796 8.09818L4.45864 9.29462C5.11659 9.95633 5.05455 10.973 4.31966 11.5656C3.81791 11.9705 3.13319 12.0654 2.53959 11.8787C2.53959 11.8787 2.54881 16.0126 2.54881 20.4397C2.54881 21.0319 3.08209 21.5119 3.74008 21.5119C4.39739 21.5119 4.93136 21.0319 4.93136 20.4397C4.93136 16.014 4.93136 18.5396 4.93136 14.0499H5.72598C5.72598 18.5363 5.72598 16.0126 5.72598 20.4397C5.72598 20.7489 5.6302 21.0351 5.47748 21.2885C5.67738 21.4269 5.92612 21.5119 6.19722 21.5119C6.85555 21.5119 7.38883 21.0319 7.38883 20.4397C7.38883 16.014 7.39035 17.8693 7.39035 6.46752C7.39045 5.47403 6.49559 4.6687 5.39107 4.6687Z" fill="black"/>
<path d="M3.90337 4.02533C4.22189 4.17434 4.5795 4.26681 4.96365 4.26681C5.34877 4.26681 5.70638 4.17434 6.02584 4.02507C6.77147 3.67739 7.28543 2.98523 7.28543 2.17738C7.28543 1.02336 6.24594 0.0881348 4.9636 0.0881348C3.68145 0.0881348 2.64221 1.02336 2.64221 2.17738C2.64226 2.98567 3.15676 3.6781 3.90337 4.02533Z" fill="black"/>
</g>
<defs>
<clipPath id="clip0_66_1426">
<rect width="24" height="21.6" fill="white"/>
</clipPath>
</defs>
</svg>
