<svg width="24" height="22" viewBox="0 0 24 22" fill="none" xmlns="http://www.w3.org/2000/svg">
<g clip-path="url(#clip0_299_216)">
<path d="M23.2324 0.249512H10.4743C10.0498 0.249512 9.70654 0.559445 9.70654 0.940881V5.81737L10.2616 5.23325C10.5252 4.95554 10.8728 4.78429 11.2421 4.71274V1.63199H22.4646V10.6595H11.2421V9.14829L10.8964 9.51216C10.5942 9.82946 10.1677 10.0264 9.70654 10.0652V11.3506C9.70654 11.7321 10.0498 12.0416 10.4743 12.0416H14.6178L12.5127 20.643C12.4184 21.0287 12.6893 21.4102 13.1182 21.4953C13.5432 21.5793 13.9706 21.3363 14.064 20.951L16.2443 12.0416H17.5117L19.692 20.951C19.7737 21.2846 20.1024 21.5122 20.467 21.5118C20.5236 21.5118 20.5814 21.5066 20.6387 21.4953C21.0676 21.4102 21.3384 21.0287 21.2433 20.643L19.1384 12.0416H23.2325C23.6565 12.0416 24.0002 11.7321 24.0002 11.3506V0.940881C24.0002 0.559445 23.6565 0.249512 23.2324 0.249512Z" fill="#CF4D40"/>
<path d="M17.1338 4.28633C17.0732 4.14906 16.9017 4.08166 16.7493 4.136L12.226 5.57289C11.8108 5.28362 11.2119 5.3353 10.8657 5.69767L9.43039 7.2062L8.15771 6.22436C8.1661 6.30544 8.18518 6.38423 8.18518 6.46743V8.59887L8.89324 9.1449C9.31343 9.46878 9.942 9.41872 10.2933 9.04788L12.002 7.24959L13.3801 6.52401L17.0068 4.61432C17.1322 4.54926 17.1878 4.41022 17.1338 4.28633Z" fill="#CF4D40"/>
<path d="M5.39107 4.66846H4.53868C3.88603 4.66846 3.31215 4.95394 2.94738 5.38909L0.330906 7.55712C-0.0767775 7.88396 -0.113755 8.45011 0.253371 8.81923L2.38806 10.9637C2.75199 11.3304 3.38198 11.3628 3.78962 11.0332C4.19833 10.7036 4.23286 10.1389 3.86661 9.7715L2.39522 8.29272L4.48517 6.60958L3.26796 8.09794L4.45864 9.29437C5.11659 9.95608 5.05455 10.9728 4.31966 11.5654C3.81791 11.9702 3.13319 12.0652 2.53959 11.8785C2.53959 11.8785 2.54881 16.0124 2.54881 20.4395C2.54881 21.0316 3.08209 21.5116 3.74008 21.5116C4.39739 21.5116 4.93136 21.0316 4.93136 20.4395C4.93136 16.0137 4.93136 18.5393 4.93136 14.0497H5.72598C5.72598 18.5361 5.72598 16.0124 5.72598 20.4395C5.72598 20.7486 5.6302 21.0349 5.47748 21.2883C5.67738 21.4267 5.92612 21.5116 6.19722 21.5116C6.85555 21.5116 7.38883 21.0316 7.38883 20.4395C7.38883 16.0137 7.39035 17.8691 7.39035 6.46728C7.39045 5.47379 6.49559 4.66846 5.39107 4.66846Z" fill="#CF4D40"/>
<path d="M3.90324 4.02509C4.22177 4.17409 4.57938 4.26656 4.96353 4.26656C5.34865 4.26656 5.70626 4.17409 6.02572 4.02482C6.77135 3.67715 7.2853 2.98499 7.2853 2.17714C7.2853 1.02312 6.24582 0.0878906 4.96348 0.0878906C3.68133 0.0878906 2.64209 1.02312 2.64209 2.17714C2.64214 2.98543 3.15663 3.67786 3.90324 4.02509Z" fill="#CF4D40"/>
</g>
<defs>
<clipPath id="clip0_299_216">
<rect width="24" height="21.6" fill="white"/>
</clipPath>
</defs>
</svg>
