<svg width="48" height="40" viewBox="0 0 48 40" fill="none" xmlns="http://www.w3.org/2000/svg">
<g clip-path="url(#clip0_167_921)">
<path d="M28.2382 19.5859L20.5942 18.0078C19.3096 17.7422 18.4072 16.8828 18.4072 15.9219C18.4072 14.7266 19.7661 13.75 21.433 13.75H26.2104C27.3995 13.75 28.5355 14.0312 29.4591 14.5391C29.7989 14.7266 30.266 14.6953 30.5633 14.4766L31.7629 13.5781C32.1239 13.3125 32.0814 12.875 31.678 12.6406C30.128 11.7344 28.217 11.2422 26.1998 11.2422H25.6584V8.11719C25.6584 7.77344 25.2762 7.49219 24.809 7.49219H23.1104C22.6433 7.49219 22.2611 7.77344 22.2611 8.11719V11.2422H21.433C17.8976 11.2422 15.0099 13.3359 15.0099 15.9141C15.0099 17.9922 16.9315 19.8359 19.6706 20.4062L27.3146 21.9844C28.5992 22.25 29.5016 23.1094 29.5016 24.0703C29.5016 25.2656 28.1427 26.2422 26.4759 26.2422H21.6984C20.5093 26.2422 19.3733 25.9609 18.4497 25.4531C18.11 25.2656 17.6428 25.2969 17.3456 25.5156L16.1459 26.4141C15.7849 26.6797 15.8274 27.1172 16.2308 27.3516C17.7808 28.2578 19.6918 28.75 21.709 28.75H22.2611V31.875C22.2611 32.2188 22.6433 32.5 23.1104 32.5H24.809C25.2762 32.5 25.6584 32.2188 25.6584 31.875V28.75H26.4865C30.0218 28.75 32.9095 26.6562 32.9095 24.0781C32.8989 22 30.9879 20.1562 28.2382 19.5859ZM42.645 2.5H5.27445C2.46104 2.5 0.178467 4.17969 0.178467 6.25V33.75C0.178467 35.8203 2.46104 37.5 5.27445 37.5H42.645C45.4584 37.5 47.741 35.8203 47.741 33.75V6.25C47.741 4.17969 45.4584 2.5 42.645 2.5ZM44.3436 33.75C44.3436 34.4375 43.5793 35 42.645 35H5.27445C4.34019 35 3.57579 34.4375 3.57579 33.75V6.25C3.57579 5.5625 4.34019 5 5.27445 5H42.645C43.5793 5 44.3436 5.5625 44.3436 6.25V33.75Z" fill="#F6C762"/>
</g>
<defs>
<clipPath id="clip0_167_921">
<rect width="47.5625" height="40" fill="white" transform="translate(0.178467)"/>
</clipPath>
</defs>
</svg>
