<svg width="47" height="34" viewBox="0 0 47 34" fill="none" xmlns="http://www.w3.org/2000/svg">
<path d="M23.7534 2.125C29.3303 2.125 33.8604 5.45859 33.8604 9.5625C33.8604 13.6664 29.3303 17 23.7534 17C18.1765 17 13.6464 13.6664 13.6464 9.5625C13.6464 5.45859 18.1765 2.125 23.7534 2.125ZM35.3043 23.375C40.0781 23.375 43.9675 26.2371 43.9675 29.75V31.875H3.53933V29.75C3.53933 26.2371 7.42874 23.375 12.2025 23.375C19.873 23.375 18.2757 24.4375 23.7534 24.4375C29.2491 24.4375 27.6248 23.375 35.3043 23.375ZM23.7534 0C16.5792 0 10.7586 4.2832 10.7586 9.5625C10.7586 14.8418 16.5792 19.125 23.7534 19.125C30.9276 19.125 36.7481 14.8418 36.7481 9.5625C36.7481 4.2832 30.9276 0 23.7534 0ZM35.3043 21.25C26.966 21.25 28.8972 22.3125 23.7534 22.3125C18.6277 22.3125 20.5318 21.25 12.2025 21.25C5.82244 21.25 0.651611 25.0551 0.651611 29.75V31.875C0.651611 33.0504 1.94206 34 3.53933 34H43.9675C45.5647 34 46.8552 33.0504 46.8552 31.875V29.75C46.8552 25.0551 41.6844 21.25 35.3043 21.25Z" fill="black"/>
</svg>
