<svg width="14" height="14" viewBox="0 0 14 14" fill="none" xmlns="http://www.w3.org/2000/svg">
<path d="M3.37074 11.761L9.7893 5.48462L10.6617 6.38668L3.77036 13.1944L3.37074 11.761ZM3.16932 11.5812L2.39368 11.5163L2.25311 10.6466L8.74645 4.4053L9.60232 5.29093L3.16932 11.5812ZM2.06509 10.4544L0.579234 10.2002L7.64635 3.26708L8.55942 4.21155L2.06509 10.4544ZM0.447368 10.4508L1.99164 10.7149L2.14478 11.6632C2.15452 11.7243 2.20462 11.7706 2.26618 11.7759L3.11525 11.8469L3.53349 13.3455L1.42895 13.735C1.43068 13.5277 1.35066 13.2151 1.09702 12.9078C0.792654 12.5386 0.392357 12.5326 0.18172 12.561L0.447368 10.4508ZM0.146353 12.8405C0.24615 12.817 0.622306 12.7557 0.889335 13.0795C1.14815 13.3933 1.17402 13.6853 1.15707 13.7858L0 14L0.146353 12.8405ZM12.5585 5.34906L11.5436 6.33066C11.3894 6.47967 11.122 6.47531 10.9727 6.32092L7.72188 2.95836C7.64703 2.88107 7.60697 2.77902 7.609 2.67069C7.61072 2.56236 7.65433 2.46153 7.73141 2.38707L8.74651 1.40526C8.82186 1.33253 8.92146 1.29256 9.02714 1.29256C9.13789 1.29256 9.24113 1.33618 9.31741 1.415L12.568 4.77756C12.7225 4.93803 12.7183 5.19416 12.5585 5.34906ZM13.8373 3.24892L12.6238 4.4479L9.6152 1.33541L10.7597 0.212509C10.7619 0.210278 10.9678 0 11.225 0H11.2284C11.3747 0.000710062 11.5155 0.0720189 11.649 0.214234L13.8273 2.41399C13.8425 2.43326 14.2016 2.88934 13.8373 3.24892Z" fill="#8A8A8A"/>
</svg>
